<svg xmlns="http://www.w3.org/2000/svg" xmlns:xlink="http://www.w3.org/1999/xlink" width="643" height="836.233" viewBox="0 0 643 836.233"><defs><linearGradient id="a" x1="0.706" y1="-0.179" x2="0.336" y2="1.204" gradientUnits="objectBoundingBox"><stop offset="0" stop-color="#7956f3" stop-opacity="0.569"/><stop offset="1" stop-color="#963cd1" stop-opacity="0.741"/></linearGradient><filter id="b" x="0" y="75.778" width="393" height="166" filterUnits="userSpaceOnUse"><feOffset input="SourceAlpha"/><feGaussianBlur stdDeviation="5" result="c"/><feFlood flood-opacity="0.102"/><feComposite operator="in" in2="c"/><feComposite in="SourceGraphic"/></filter><pattern id="d" preserveAspectRatio="xMidYMid slice" width="100%" height="100%" viewBox="0 0 2400 2400"><image width="2400" height="2400" xlink:href="../Desktop/png/target/target-dynamic-color.png"/></pattern><pattern id="e" preserveAspectRatio="xMidYMid slice" width="100%" height="100%" viewBox="0 0 2400 2400"><image width="2400" height="2400" xlink:href="../Desktop/png/trophy/trophy-dynamic-premium.png"/></pattern><filter id="f" x="410" y="501.778" width="233" height="267" filterUnits="userSpaceOnUse"><feOffset input="SourceAlpha"/><feGaussianBlur stdDeviation="5" result="g"/><feFlood flood-opacity="0.102"/><feComposite operator="in" in2="g"/><feComposite in="SourceGraphic"/></filter><pattern id="h" preserveAspectRatio="xMidYMid slice" width="100%" height="100%" viewBox="0 0 2400 2400"><image width="2400" height="2400" xlink:href="../Desktop/png/boy/boy-dynamic-color.png"/></pattern></defs><g transform="translate(-1149.629 -104.5)"><rect width="404" height="748" rx="202" transform="translate(1395.773 104.5) rotate(18)" fill="url(#a)"/><g transform="translate(69.629 -114.95)"><g transform="matrix(1, 0, 0, 1, 1080, 219.45)" filter="url(#b)"><rect width="363" height="136" rx="36" transform="translate(15 90.78)" fill="#fff"/></g><rect width="100" height="104" transform="translate(1122 319.228)" fill="url(#d)"/><rect width="192" height="16" rx="8" transform="translate(1238 353.228)" fill="#6f2fc2"/><rect width="133" height="16" rx="8" transform="translate(1247 385.228)" fill="#f57140"/></g><rect width="538" height="500" transform="translate(1189.629 345.278)" fill="url(#e)"/><g transform="translate(-23.371 -51.283)"><g transform="translate(1598 673)"><g transform="matrix(1, 0, 0, 1, -425, -517.22)" filter="url(#f)"><rect width="203" height="237" rx="36" transform="translate(425 516.78)" fill="#fff"/></g></g><rect width="94" height="93" transform="translate(1660 688.561)" fill="url(#h)"/><rect width="153" height="12" rx="6" transform="translate(1626 797.561)" fill="#343036"/><rect width="91" height="12" rx="6" transform="translate(1626 829.561)" fill="#5d5960"/><rect width="146" height="12" rx="6" transform="translate(1626 857.561)" fill="#736a78"/></g></g></svg>